<svg width="23" height="23" viewBox="0 0 23 23" fill="none" xmlns="http://www.w3.org/2000/svg">
<g clip-path="url(#clip0_2_909)">
<path d="M14.1833 13.4165H13.7617C13.6031 13.4168 13.4612 13.3178 13.4067 13.1689C13.3599 13.0462 13.3097 12.9262 13.2557 12.8074C13.1885 12.6629 13.2192 12.4918 13.3323 12.3796L13.6329 12.0787C14.079 11.6286 14.0782 10.9027 13.6309 10.4537L12.5477 9.37042C12.098 8.92345 11.3719 8.92345 10.9223 9.37042L10.6218 9.67057C10.5094 9.78332 10.3385 9.81394 10.194 9.74724C10.0752 9.69319 9.95517 9.64297 9.83212 9.5939C9.68238 9.53981 9.58276 9.3974 9.58333 9.23817V8.8165C9.58333 8.18137 9.06847 7.6665 8.43333 7.6665H6.9C6.26486 7.6665 5.75 8.18137 5.75 8.8165V9.23817C5.75029 9.39677 5.65134 9.53866 5.50237 9.59314C5.3797 9.6399 5.25972 9.69012 5.14088 9.74417C4.99632 9.81101 4.82545 9.7804 4.71308 9.6675L4.41217 9.36697C3.96261 8.92029 3.23677 8.92029 2.78722 9.36697L1.70392 10.4537C1.25695 10.9033 1.25695 11.6295 1.70392 12.0791L2.00407 12.3796C2.11725 12.4918 2.14791 12.6629 2.08073 12.8074C2.02668 12.9262 1.97647 13.0462 1.92932 13.1693C1.87445 13.3191 1.73123 13.4181 1.57167 13.4165H1.15C0.514865 13.4165 0 13.9314 0 14.5665V16.0998C0 16.735 0.514865 17.2498 1.15 17.2498H1.57167C1.73027 17.2495 1.87215 17.3485 1.92663 17.4975C1.9734 17.6201 2.02362 17.7401 2.07767 17.859C2.14485 18.0035 2.11418 18.1746 2.001 18.2868L1.70047 18.5877C1.25379 19.0372 1.25379 19.7631 1.70047 20.2126L2.78377 21.2959C3.23337 21.7429 3.9595 21.7429 4.4091 21.2959L4.70963 20.9958C4.82205 20.883 4.99287 20.8524 5.13743 20.9191C5.25627 20.9732 5.37625 21.0234 5.4993 21.0724C5.64981 21.1259 5.75029 21.2685 5.75 21.4282V21.8498C5.75 22.485 6.26486 22.9998 6.9 22.9998H8.43333C9.06847 22.9998 9.58333 22.485 9.58333 21.8498V21.4282C9.58305 21.2696 9.68199 21.1277 9.83097 21.0732C9.95363 21.0264 10.0736 20.9762 10.1925 20.9222C10.337 20.8553 10.5079 20.8859 10.6203 20.9988L10.9212 21.2994C11.3713 21.7453 12.097 21.7445 12.5461 21.2975L13.6294 20.2142C14.0764 19.7646 14.0764 19.0384 13.6294 18.5888L13.3293 18.2883C13.2161 18.1761 13.1854 18.005 13.2526 17.8605C13.3067 17.7417 13.3569 17.6217 13.4059 17.4986C13.46 17.3489 13.6024 17.2493 13.7617 17.2498H14.1833C14.8185 17.2498 15.3333 16.735 15.3333 16.0998V14.5665C15.3333 13.9314 14.8185 13.4165 14.1833 13.4165ZM14.5667 16.0998C14.5667 16.3115 14.395 16.4832 14.1833 16.4832H13.7617C13.2851 16.4849 12.8587 16.7795 12.6883 17.2245C12.6477 17.3319 12.6038 17.4375 12.5565 17.5416C12.3594 17.9766 12.4508 18.4882 12.7865 18.828L13.0862 19.1282C13.236 19.2778 13.2362 19.5205 13.0865 19.6703C13.0864 19.6704 13.0863 19.6705 13.0862 19.6706L12.0029 20.7539C11.8532 20.9035 11.6106 20.9035 11.4609 20.7539L11.1604 20.4537C10.8207 20.1178 10.3089 20.0263 9.8739 20.2237C9.77002 20.2709 9.66422 20.315 9.55765 20.3556C9.11294 20.5259 8.81858 20.952 8.81667 21.4282V21.8498C8.81667 22.0615 8.64503 22.2332 8.43333 22.2332H6.9C6.6883 22.2332 6.51667 22.0615 6.51667 21.8498V21.4282C6.51489 20.9516 6.22035 20.5252 5.7753 20.3548C5.66797 20.3142 5.56231 20.2703 5.45828 20.223C5.0232 20.026 4.51169 20.1175 4.17182 20.453L3.87167 20.7527C3.72207 20.9025 3.47933 20.9027 3.32954 20.753C3.32944 20.7529 3.32935 20.7528 3.32925 20.7527L2.24595 19.6706C2.09631 19.5209 2.09631 19.2782 2.24595 19.1286L2.5461 18.828C2.88176 18.4882 2.97318 17.9766 2.7761 17.5416C2.72895 17.4377 2.68487 17.3319 2.64423 17.2253C2.47432 16.7801 2.04815 16.4853 1.57167 16.4832H1.15C0.938304 16.4832 0.766667 16.3115 0.766667 16.0998V14.5665C0.766667 14.3548 0.938304 14.1832 1.15 14.1832H1.57167C2.0482 14.1814 2.47466 13.8869 2.645 13.4418C2.68563 13.3345 2.72957 13.2288 2.77687 13.1248C2.97395 12.6897 2.88248 12.1781 2.54687 11.8383L2.24557 11.5382C2.09578 11.3886 2.09564 11.1458 2.24528 10.996C2.24538 10.9959 2.24547 10.9958 2.24557 10.9958L3.32887 9.91245C3.47856 9.76281 3.72121 9.76281 3.8709 9.91245L4.17143 10.2126C4.51112 10.5485 5.02286 10.64 5.4579 10.4426C5.56178 10.3955 5.66758 10.3514 5.77415 10.3107C6.21949 10.141 6.51451 9.71475 6.51667 9.23817V8.8165C6.51667 8.60481 6.6883 8.43317 6.9 8.43317H8.43333C8.64503 8.43317 8.81667 8.60481 8.81667 8.8165V9.23817C8.81844 9.7147 9.11298 10.1412 9.55803 10.3115C9.66537 10.3521 9.77102 10.3961 9.87505 10.4434C10.3101 10.6408 10.8218 10.5493 11.1615 10.2134L11.4617 9.9136C11.6119 9.76497 11.8538 9.76497 12.0041 9.9136L13.0874 10.9969C13.237 11.1466 13.237 11.3892 13.0874 11.5389L12.7872 11.8395C12.4516 12.1793 12.3602 12.6909 12.5572 13.1259C12.6044 13.2298 12.6485 13.3356 12.6891 13.4422C12.8594 13.8869 13.2855 14.1813 13.7617 14.1832H14.1833C14.395 14.1832 14.5667 14.3548 14.5667 14.5665V16.0998Z" fill="#20B169"/>
<path d="M11.1089 15.18C11.1051 15.088 11.0986 14.9964 11.0875 14.9051C11.0752 14.807 11.0606 14.7096 11.0403 14.6142C11.0269 14.5517 11.0093 14.49 10.9924 14.4279C10.9709 14.3489 10.9468 14.2711 10.9199 14.1944C10.9012 14.1411 10.8816 14.0882 10.8617 14.0357C10.8123 13.913 10.7559 13.7931 10.6926 13.6769C10.6876 13.6681 10.6846 13.6585 10.6796 13.6497C10.5799 13.4722 10.4644 13.304 10.3346 13.1472C10.3235 13.1334 10.3108 13.1203 10.2993 13.1069C10.2464 13.0444 10.192 12.9839 10.1349 12.926C10.105 12.8949 10.0735 12.8658 10.0421 12.8359C10.0038 12.8002 9.96544 12.765 9.9271 12.7312C9.88058 12.6908 9.83319 12.6517 9.78489 12.6139L9.72202 12.5672C9.12886 12.1229 8.40767 11.8829 7.66659 11.8833C7.62825 11.8833 7.58992 11.8891 7.55159 11.8906C7.46994 11.8929 7.3879 11.8975 7.30549 11.9059C7.26217 11.9105 7.21847 11.9155 7.17515 11.9216C7.05019 11.9381 6.92618 11.9613 6.8037 11.991C4.95791 12.468 3.84825 14.351 4.32521 16.1968C4.63955 17.4131 5.58983 18.3627 6.80639 18.676C6.81252 18.676 6.81904 18.6779 6.82555 18.6794C6.95795 18.7124 7.09207 18.7381 7.22729 18.7561C7.3166 18.7672 7.40592 18.7695 7.49562 18.7737C7.55542 18.7768 7.61062 18.7856 7.6731 18.7856C7.78235 18.7856 7.89582 18.7783 8.01159 18.7668C8.02385 18.7668 8.03612 18.7634 8.04992 18.7619C8.14307 18.7515 8.23737 18.7377 8.33359 18.7185C8.37192 18.7113 8.40757 18.7017 8.44437 18.6932C8.51184 18.6775 8.57892 18.661 8.64792 18.6407C8.70159 18.6246 8.75372 18.6058 8.80624 18.5874C8.85875 18.569 8.91319 18.5491 8.96762 18.5284C9.02205 18.5077 9.06767 18.4839 9.11712 18.4609C9.18152 18.4314 9.24554 18.4023 9.30879 18.3678H9.31109C9.66883 18.1763 9.99927 17.9376 10.2936 17.6582C10.3731 17.5841 10.4422 17.4994 10.499 17.4068C10.7982 16.9271 10.9948 16.3907 11.0763 15.8313C11.0871 15.7573 11.0967 15.6833 11.1024 15.6078C11.1078 15.5384 11.1116 15.4694 11.1131 15.4004C11.1131 15.3785 11.1162 15.3578 11.1162 15.336C11.1166 15.2819 11.1112 15.2321 11.1089 15.18ZM10.3449 15.4311C10.3449 15.4629 10.3423 15.4947 10.3403 15.5261C10.3334 15.6189 10.3216 15.7117 10.3058 15.8048C10.1626 16.6018 9.66773 17.2918 8.9588 17.6831C8.91127 17.7081 8.8645 17.7314 8.81774 17.7529L8.78592 17.7682C8.5632 17.8694 8.32812 17.9405 8.08672 17.9798C8.06985 17.9825 8.0526 17.9856 8.03535 17.9879C7.98744 17.9948 7.94029 18.0006 7.89352 18.0048C7.8318 18.0101 7.7697 18.0132 7.70645 18.0143C7.67962 18.0143 7.65317 18.0143 7.62634 18.0143C7.53563 18.0133 7.44507 18.0077 7.35494 17.9975L7.30894 17.9921C7.20352 17.9783 7.09897 17.9586 6.99575 17.9331C5.56007 17.5656 4.69413 16.1039 5.06155 14.6682C5.30434 13.7195 6.04466 12.9784 6.99307 12.7347V12.7343C7.2133 12.6788 7.43946 12.6504 7.66659 12.65C7.77617 12.6506 7.88566 12.658 7.99434 12.6722C8.02347 12.6757 8.05222 12.681 8.08097 12.6852C8.16377 12.6983 8.2458 12.7148 8.32669 12.7355C8.35314 12.7424 8.37959 12.7485 8.40565 12.7558C8.60949 12.8146 8.80571 12.8972 8.99024 13.0019C9.01975 13.0191 9.0485 13.0371 9.07764 13.0552C9.1382 13.0935 9.19685 13.1318 9.25474 13.1755C9.28579 13.1981 9.31722 13.2204 9.34712 13.2445C9.42235 13.3046 9.49437 13.3686 9.56294 13.4362C9.59015 13.4638 9.61507 13.4941 9.64152 13.5228C9.6856 13.5707 9.72854 13.6198 9.76955 13.6716C9.79792 13.7072 9.82514 13.744 9.85197 13.7812C9.8903 13.8364 9.92864 13.8939 9.96314 13.9522C9.9823 13.984 10.0015 14.015 10.021 14.0476C10.0705 14.1386 10.1145 14.2324 10.1529 14.3286C10.1682 14.3669 10.1813 14.4053 10.1951 14.4436C10.22 14.5141 10.2414 14.5854 10.2602 14.6575C10.2698 14.6958 10.2805 14.7299 10.2886 14.7671C10.311 14.8707 10.3272 14.9756 10.3373 15.0811C10.3396 15.1091 10.3396 15.1374 10.3415 15.1654C10.3469 15.2536 10.3484 15.3421 10.3449 15.4311Z" fill="#20B169"/>
<path d="M21.8501 8.05H20.6445C20.4838 8.05163 20.34 7.95038 20.2873 7.79853C20.1684 7.44246 20.0246 7.09516 19.8568 6.75932C19.7856 6.61427 19.8153 6.4399 19.9304 6.32653L20.7852 5.47055C21.2339 5.02152 21.2339 4.29386 20.7852 3.84483L19.1553 2.21758C18.7063 1.76889 17.9786 1.76889 17.5296 2.21758L16.6751 3.07165C16.5619 3.18675 16.3878 3.21655 16.2427 3.14563C15.9068 2.97701 15.5594 2.8324 15.2031 2.71285C15.0507 2.66067 14.9487 2.51673 14.9501 2.35558V1.15C14.9501 0.514865 14.4353 0 13.8001 0H11.5001C10.865 0 10.3501 0.514865 10.3501 1.15V2.35558C10.3518 2.51634 10.2506 2.66014 10.0987 2.71285C9.74254 2.83235 9.39524 2.97687 9.05944 3.14525C8.9144 3.21669 8.73994 3.18703 8.62666 3.07165L7.77068 2.21682C7.32112 1.76942 6.59452 1.76942 6.14496 2.21682L4.51809 3.84368C4.06916 4.29276 4.06916 5.02071 4.51809 5.46978L5.77504 6.72903C5.92708 6.87633 6.16978 6.8725 6.31708 6.72041C6.46078 6.57206 6.46112 6.3365 6.31785 6.18777L5.06013 4.9289C4.91048 4.77921 4.91048 4.53656 5.06013 4.38687L6.68699 2.76C6.83669 2.61036 7.07934 2.61036 7.22903 2.76L8.08539 3.61483C8.43188 3.96338 8.9628 4.05049 9.40253 3.83103C9.70618 3.67899 10.0201 3.54847 10.3421 3.44042C10.8068 3.28311 11.1188 2.8462 11.1168 2.35558V1.15C11.1168 0.938304 11.2884 0.766667 11.5001 0.766667H13.8001C14.0118 0.766667 14.1835 0.938304 14.1835 1.15V2.35558C14.1815 2.84611 14.4935 3.28287 14.9582 3.44003C15.2803 3.54813 15.5944 3.67875 15.8981 3.83103C16.3379 4.04934 16.8681 3.96213 17.2149 3.61445L18.0712 2.76C18.2209 2.61036 18.4636 2.61036 18.6133 2.76L20.2401 4.38725C20.3895 4.53689 20.3895 4.77926 20.2401 4.9289L19.3853 5.78527C19.0371 6.13194 18.95 6.66262 19.1691 7.1024C19.3211 7.40605 19.4517 7.72 19.5597 8.04195C19.7169 8.50674 20.1539 8.81878 20.6445 8.81667H21.8501C22.0618 8.81667 22.2335 8.9883 22.2335 9.2V11.5C22.2335 11.7117 22.0618 11.8833 21.8501 11.8833H20.6445C20.154 11.8814 19.7173 12.1934 19.5601 12.658C19.452 12.9801 19.3214 13.2942 19.1691 13.598C18.9504 14.0378 19.0377 14.5682 19.3857 14.9147L20.2405 15.7711C20.3902 15.9208 20.3902 16.1634 20.2405 16.3131L18.6129 17.94C18.4632 18.0894 18.2209 18.0894 18.0712 17.94L16.8116 16.6831C16.6643 16.531 16.4216 16.5271 16.2696 16.6744C16.1175 16.8217 16.1136 17.0644 16.2609 17.2165C16.264 17.2196 16.2672 17.2228 16.2703 17.2258L17.5296 18.4828C17.9786 18.9315 18.7063 18.9315 19.1553 18.4828L20.7822 16.8563C21.2311 16.4072 21.2311 15.6793 20.7822 15.2302L19.9285 14.375C19.8135 14.2617 19.7837 14.0876 19.8545 13.9426C20.0231 13.6067 20.1677 13.2593 20.2873 12.903C20.3395 12.7505 20.4834 12.6486 20.6445 12.65H21.8501C22.4853 12.65 23.0001 12.1351 23.0001 11.5V9.2C23.0001 8.56486 22.4853 8.05 21.8501 8.05Z" fill="#20B169"/>
<path d="M16.1736 6.82651C14.2264 4.88335 11.0736 4.88335 9.12639 6.82651C8.97933 6.97879 8.98355 7.22149 9.13583 7.36855C9.28437 7.51201 9.51988 7.51201 9.66842 7.36855C11.3041 5.71082 13.9738 5.69295 15.6316 7.32858C17.2893 8.96422 17.3072 11.634 15.6715 13.2917C15.6583 13.3051 15.645 13.3185 15.6316 13.3317C15.4793 13.4788 15.4751 13.7214 15.6222 13.8737C15.7693 14.026 16.0119 14.0302 16.1642 13.8831C16.1674 13.88 16.1705 13.8769 16.1736 13.8737C18.1168 11.9265 18.1168 8.77375 16.1736 6.82651Z" fill="#20B169"/>
</g>
<defs>
<clipPath id="clip0_2_909">
<rect width="23" height="23" fill="white"/>
</clipPath>
</defs>
</svg>
