<svg width="31" height="31" viewBox="0 0 31 31" fill="none" xmlns="http://www.w3.org/2000/svg">
<path d="M25.4609 11.3105H14.2109C12.8302 11.3105 11.7109 12.4298 11.7109 13.8105V25.0605C11.7109 26.4413 12.8302 27.5605 14.2109 27.5605H25.4609C26.8416 27.5605 27.9609 26.4413 27.9609 25.0605V13.8105C27.9609 12.4298 26.8416 11.3105 25.4609 11.3105Z" stroke="#2A468D" stroke-width="2" stroke-linecap="round" stroke-linejoin="round"/>
<path d="M6.71094 18.8105H5.46094C4.7979 18.8105 4.16201 18.5472 3.69317 18.0783C3.22433 17.6095 2.96094 16.9736 2.96094 16.3105V5.06055C2.96094 4.39751 3.22433 3.76162 3.69317 3.29278C4.16201 2.82394 4.7979 2.56055 5.46094 2.56055H16.7109C17.374 2.56055 18.0099 2.82394 18.4787 3.29278C18.9475 3.76162 19.2109 4.39751 19.2109 5.06055V6.31055" stroke="#2A468D" stroke-width="2" stroke-linecap="round" stroke-linejoin="round"/>
</svg>
