<svg width="21" height="21" viewBox="0 0 21 21" fill="none" xmlns="http://www.w3.org/2000/svg">
<g clip-path="url(#clip0_143_442)">
<path d="M10.6875 0.882324V19.2157" stroke="#828282" stroke-width="2" stroke-linecap="round" stroke-linejoin="round"/>
<path d="M10.6875 0.882324V19.2157" stroke="black" stroke-opacity="0.2" stroke-width="2" stroke-linecap="round" stroke-linejoin="round"/>
<path d="M14.8542 4.21533H8.60417C7.83062 4.21533 7.08875 4.52262 6.54177 5.0696C5.99479 5.61659 5.6875 6.35845 5.6875 7.132C5.6875 7.90555 5.99479 8.64741 6.54177 9.19439C7.08875 9.74138 7.83062 10.0487 8.60417 10.0487H12.7708C13.5444 10.0487 14.2862 10.356 14.8332 10.9029C15.3802 11.4499 15.6875 12.1918 15.6875 12.9653C15.6875 13.7389 15.3802 14.4807 14.8332 15.0277C14.2862 15.5747 13.5444 15.882 12.7708 15.882H5.6875" stroke="#828282" stroke-width="2" stroke-linecap="round" stroke-linejoin="round"/>
<path d="M14.8542 4.21533H8.60417C7.83062 4.21533 7.08875 4.52262 6.54177 5.0696C5.99479 5.61659 5.6875 6.35845 5.6875 7.132C5.6875 7.90555 5.99479 8.64741 6.54177 9.19439C7.08875 9.74138 7.83062 10.0487 8.60417 10.0487H12.7708C13.5444 10.0487 14.2862 10.356 14.8332 10.9029C15.3802 11.4499 15.6875 12.1918 15.6875 12.9653C15.6875 13.7389 15.3802 14.4807 14.8332 15.0277C14.2862 15.5747 13.5444 15.882 12.7708 15.882H5.6875" stroke="black" stroke-opacity="0.2" stroke-width="2" stroke-linecap="round" stroke-linejoin="round"/>
</g>
<defs>
<clipPath id="clip0_143_442">
<rect width="20" height="20" fill="white" transform="translate(0.6875 0.0488281)"/>
</clipPath>
</defs>
</svg>
