<svg width="20" height="21" viewBox="0 0 20 21" fill="none" xmlns="http://www.w3.org/2000/svg">
<g clip-path="url(#clip0)">
<path d="M11.7666 11.9158C11.5377 12.1614 11.2617 12.3584 10.955 12.495C10.6484 12.6317 10.3173 12.7052 9.98166 12.7111C9.64598 12.717 9.31255 12.6553 9.00126 12.5295C8.68997 12.4038 8.40719 12.2166 8.16979 11.9792C7.93239 11.7418 7.74525 11.4591 7.61951 11.1478C7.49377 10.8365 7.43202 10.503 7.43795 10.1674C7.44387 9.83169 7.51734 9.50065 7.65398 9.19398C7.79062 8.88732 7.98763 8.61132 8.23325 8.38244M14.9499 15.0991C13.5254 16.1849 11.7908 16.7865 9.99992 16.8158C4.16658 16.8158 0.833252 10.1491 0.833252 10.1491C1.86983 8.21736 3.30753 6.52962 5.04992 5.19911L14.9499 15.0991ZM8.24992 3.68244C8.82353 3.54818 9.4108 3.48106 9.99992 3.48244C15.8333 3.48244 19.1666 10.1491 19.1666 10.1491C18.6607 11.0954 18.0575 11.9864 17.3666 12.8074L8.24992 3.68244Z" stroke="#BDBDBD" stroke-width="1.5" stroke-linecap="round" stroke-linejoin="round"/>
<path d="M0.833252 0.982422L19.1666 19.3158" stroke="#BDBDBD" stroke-width="1.5" stroke-linecap="round" stroke-linejoin="round"/>
</g>
<defs>
<clipPath id="clip0">
<rect width="20" height="20" fill="white" transform="translate(0 0.149414)"/>
</clipPath>
</defs>
</svg>
