<svg width="25" height="26" viewBox="0 0 25 26" fill="none" xmlns="http://www.w3.org/2000/svg">
<path d="M1.6317 7.23809C2.6436 5.16714 4.19594 3.42623 6.1152 2.20992C8.03446 0.99362 10.245 0.349856 12.4998 0.350587C15.7775 0.350587 18.531 1.58809 20.6363 3.60684L17.1494 7.19184C15.8882 5.95309 14.2852 5.32184 12.4998 5.32184C9.33157 5.32184 6.64981 7.52184 5.69508 10.4756C5.45184 11.2256 5.31319 12.0256 5.31319 12.8506C5.31319 13.6756 5.45184 14.4756 5.69508 15.2256C6.65103 18.1806 9.33157 20.3793 12.4998 20.3793C14.1356 20.3793 15.5282 19.9356 16.6179 19.1856C17.2497 18.7581 17.7905 18.2034 18.2078 17.555C18.625 16.9065 18.91 16.1779 19.0455 15.4131H12.4998V10.5781H23.9541C24.0976 11.3956 24.1755 12.2481 24.1755 13.1343C24.1755 16.9418 22.8498 20.1468 20.5487 22.3218C18.5371 24.2318 15.7836 25.3506 12.4998 25.3506C10.9025 25.3512 9.32067 25.0284 7.8448 24.4004C6.36893 23.7725 5.02792 22.8518 3.89844 21.6909C2.76895 20.53 1.87311 19.1518 1.26213 17.6349C0.651155 16.118 0.337008 14.4923 0.337647 12.8506C0.337647 10.8331 0.807107 8.92559 1.6317 7.23809Z" fill="black"/>
</svg>
