<svg width="25" height="25" viewBox="0 0 25 25" fill="none" xmlns="http://www.w3.org/2000/svg">
<g clip-path="url(#clip0_5121_544)">
<path d="M15.9609 7.41748H18.9609C19.6175 7.41748 20.2677 7.54681 20.8744 7.79808C21.481 8.04936 22.0322 8.41765 22.4965 8.88195C22.9608 9.34624 23.3291 9.89744 23.5803 10.5041C23.8316 11.1107 23.9609 11.7609 23.9609 12.4175C23.9609 13.0741 23.8316 13.7243 23.5803 14.3309C23.3291 14.9375 22.9608 15.4887 22.4965 15.953C22.0322 16.4173 21.481 16.7856 20.8744 17.0369C20.2677 17.2882 19.6175 17.4175 18.9609 17.4175H15.9609M9.96094 17.4175H6.96094C6.30433 17.4175 5.65415 17.2882 5.04752 17.0369C4.44089 16.7856 3.8897 16.4173 3.4254 15.953C2.48772 15.0153 1.96094 13.7436 1.96094 12.4175C1.96094 11.0914 2.48772 9.81963 3.4254 8.88195C4.36309 7.94426 5.63486 7.41748 6.96094 7.41748H9.96094" stroke="#828282" stroke-width="2" stroke-linecap="round" stroke-linejoin="round"/>
<path d="M8.96094 12.4175H16.9609" stroke="#828282" stroke-width="2" stroke-linecap="round" stroke-linejoin="round"/>
</g>
<defs>
<clipPath id="clip0_5121_544">
<rect width="24" height="24" fill="white" transform="translate(0.960938 0.41748)"/>
</clipPath>
</defs>
</svg>
