<svg width="21" height="21" viewBox="0 0 21 21" fill="none" xmlns="http://www.w3.org/2000/svg">
<g clip-path="url(#clip0)">
<path d="M17.959 8.52539C17.959 14.3587 10.459 19.3587 10.459 19.3587C10.459 19.3587 2.95898 14.3587 2.95898 8.52539C2.95898 6.53627 3.74916 4.62861 5.15568 3.22209C6.56221 1.81557 8.46986 1.02539 10.459 1.02539C12.4481 1.02539 14.3558 1.81557 15.7623 3.22209C17.1688 4.62861 17.959 6.53627 17.959 8.52539Z" stroke="#828282" stroke-width="2" stroke-linecap="round" stroke-linejoin="round"/>
<path d="M17.959 8.52539C17.959 14.3587 10.459 19.3587 10.459 19.3587C10.459 19.3587 2.95898 14.3587 2.95898 8.52539C2.95898 6.53627 3.74916 4.62861 5.15568 3.22209C6.56221 1.81557 8.46986 1.02539 10.459 1.02539C12.4481 1.02539 14.3558 1.81557 15.7623 3.22209C17.1688 4.62861 17.959 6.53627 17.959 8.52539Z" stroke="black" stroke-opacity="0.2" stroke-width="2" stroke-linecap="round" stroke-linejoin="round"/>
<path d="M10.459 11.0254C11.8397 11.0254 12.959 9.9061 12.959 8.52539C12.959 7.14468 11.8397 6.02539 10.459 6.02539C9.07827 6.02539 7.95898 7.14468 7.95898 8.52539C7.95898 9.9061 9.07827 11.0254 10.459 11.0254Z" stroke="#828282" stroke-width="2" stroke-linecap="round" stroke-linejoin="round"/>
<path d="M10.459 11.0254C11.8397 11.0254 12.959 9.9061 12.959 8.52539C12.959 7.14468 11.8397 6.02539 10.459 6.02539C9.07827 6.02539 7.95898 7.14468 7.95898 8.52539C7.95898 9.9061 9.07827 11.0254 10.459 11.0254Z" stroke="black" stroke-opacity="0.2" stroke-width="2" stroke-linecap="round" stroke-linejoin="round"/>
</g>
<defs>
<clipPath id="clip0">
<rect width="20" height="20" fill="white" transform="translate(0.458984 0.191406)"/>
</clipPath>
</defs>
</svg>
