<svg width="31" height="31" viewBox="0 0 31 31" fill="none" xmlns="http://www.w3.org/2000/svg">
<path d="M7.95898 12.2441V3.49414H22.959V12.2441" stroke="#2A468D" stroke-width="2" stroke-linecap="round" stroke-linejoin="round"/>
<path d="M7.95898 23.4941H5.45898C4.79594 23.4941 4.16006 23.2307 3.69122 22.7619C3.22238 22.2931 2.95898 21.6572 2.95898 20.9941V14.7441C2.95898 14.0811 3.22238 13.4452 3.69122 12.9764C4.16006 12.5075 4.79594 12.2441 5.45898 12.2441H25.459C26.122 12.2441 26.7579 12.5075 27.2268 12.9764C27.6956 13.4452 27.959 14.0811 27.959 14.7441V20.9941C27.959 21.6572 27.6956 22.2931 27.2268 22.7619C26.7579 23.2307 26.122 23.4941 25.459 23.4941H22.959" stroke="#2A468D" stroke-width="2" stroke-linecap="round" stroke-linejoin="round"/>
<path d="M22.959 18.4941H7.95898V28.4941H22.959V18.4941Z" stroke="#2A468D" stroke-width="2" stroke-linecap="round" stroke-linejoin="round"/>
</svg>
