<svg width="31" height="31" viewBox="0 0 31 31" fill="none" xmlns="http://www.w3.org/2000/svg">
<g clip-path="url(#clip0)">
<path d="M29.709 5.99414V13.4941H22.209" stroke="#2A468D" stroke-width="2" stroke-linecap="round" stroke-linejoin="round"/>
<path d="M2.20898 25.9941V18.4941H9.70898" stroke="#2A468D" stroke-width="2" stroke-linecap="round" stroke-linejoin="round"/>
<path d="M5.34648 12.2431C5.98044 10.4516 7.0579 8.84989 8.47832 7.58741C9.89873 6.32493 11.6158 5.44284 13.4693 5.02346C15.3229 4.60408 17.2524 4.66106 19.078 5.1891C20.9035 5.71714 22.5656 6.69903 23.909 8.04314L29.709 13.4931M2.20898 18.4931L8.00898 23.9431C9.35242 25.2872 11.0145 26.2691 12.84 26.7972C14.6655 27.3252 16.5951 27.3822 18.4486 26.9628C20.3022 26.5434 22.0192 25.6613 23.4397 24.3989C24.8601 23.1364 25.9375 21.5347 26.5715 19.7431" stroke="#2A468D" stroke-width="2" stroke-linecap="round" stroke-linejoin="round"/>
</g>
<defs>
<clipPath id="clip0">
<rect width="30" height="30" fill="white" transform="translate(0.958984 0.994141)"/>
</clipPath>
</defs>
</svg>
