<svg width="24" height="24" viewBox="0 0 24 24" fill="none" xmlns="http://www.w3.org/2000/svg">
<g clip-path="url(#clip0)">
<path d="M22.5927 17.3625C21.8053 16.8523 20.7497 17.0775 20.2392 17.8647C19.9372 18.3305 19.3681 18.7922 18.6148 19.195L16.6762 15.0358C17.2402 15.0717 17.776 15.2851 18.2169 15.655L18.7015 16.0617C19.0107 16.3212 19.3933 16.46 19.7923 16.46C19.8425 16.46 19.893 16.4578 19.9435 16.4533C20.3964 16.4138 20.8066 16.2002 21.0989 15.852C21.7019 15.1332 21.6078 14.0578 20.8891 13.4547L20.4044 13.0479C19.1617 12.0053 17.5871 11.5088 15.9714 11.6503L8.93954 12.2655C8.36926 12.3155 7.83676 11.9743 7.64322 11.4361L7.08456 9.88252L11.3381 9.28468C12.1572 9.16946 12.9721 9.38035 13.6327 9.87816L14.2767 10.3635C14.5519 10.5708 14.88 10.68 15.2186 10.68C15.2922 10.68 15.3663 10.6749 15.4405 10.6644C15.8561 10.6061 16.224 10.3894 16.4764 10.0543C16.7289 9.71921 16.8358 9.30586 16.7774 8.89041C16.7191 8.47496 16.5023 8.10704 16.1673 7.85457L15.5232 7.36927C14.1925 6.36652 12.5508 5.94197 10.9008 6.17386L5.99865 6.86279L3.93578 1.12585C3.61825 0.243051 2.64151 -0.21698 1.75872 0.100457C0.875779 0.417988 0.415842 1.39458 0.733279 2.27757L4.44076 12.5877C4.90529 13.8795 5.89872 14.8638 7.11475 15.3458L5.35253 19.1266C4.6614 18.7403 4.13819 18.3043 3.85319 17.8647C3.34276 17.0775 2.287 16.8524 1.49969 17.3626C0.712373 17.873 0.487092 18.9287 0.997514 19.7161C1.85439 21.0378 3.39559 22.14 5.45444 22.9035C7.38901 23.6208 9.6684 24 12.0462 24C14.424 24 16.7034 23.6208 18.6379 22.9035C20.6968 22.14 22.238 21.0378 23.0949 19.7161C23.6053 18.9287 23.3801 17.873 22.5927 17.3625ZM17.6634 19.6326C17.5947 19.6597 17.5252 19.6865 17.4547 19.7126C17.2002 19.8069 16.9367 19.8932 16.6667 19.973L14.4422 15.2004L15.5522 15.1033L17.6634 19.6326ZM15.6333 20.2346C14.5157 20.4729 13.303 20.5968 12.0462 20.5968C10.7358 20.5968 9.47345 20.4618 8.31662 20.2031L10.4871 15.5464L13.3322 15.2975L15.6333 20.2346ZM11.0467 7.21083C12.4199 7.0178 13.7857 7.37114 14.8931 8.20557L15.5372 8.69086C15.6489 8.775 15.7211 8.89763 15.7405 9.03614C15.76 9.17471 15.7244 9.31243 15.6402 9.42418C15.5561 9.53588 15.4335 9.60807 15.295 9.62752C15.295 9.62752 15.2949 9.62752 15.2949 9.62752C15.1567 9.64702 15.0187 9.61139 14.907 9.52721L14.263 9.04191C13.5368 8.49465 12.6714 8.20669 11.7778 8.20669C11.5837 8.20669 11.3881 8.22029 11.1924 8.2478L6.72259 8.87597L6.36062 7.86933L11.0467 7.21083ZM5.42612 12.2334L1.71869 1.92319C1.59658 1.58358 1.77348 1.20793 2.11305 1.08582C2.45242 0.96366 2.82826 1.14061 2.95042 1.48022L6.6579 11.7904C7.01223 12.7756 7.98906 13.4001 9.03086 13.3087L16.0627 12.6935C17.3999 12.5762 18.7029 12.9872 19.7313 13.8502L20.2159 14.2568C20.4924 14.4888 20.5285 14.9025 20.2967 15.1789C20.1843 15.3128 20.0265 15.395 19.8524 15.4102C19.8524 15.4102 19.8524 15.4102 19.8523 15.4102C19.6783 15.4253 19.5085 15.372 19.3746 15.2596L18.89 14.853C18.2144 14.2861 17.3787 13.983 16.507 13.983C16.3974 13.983 16.2872 13.9878 16.1768 13.9974L9.14495 14.6126C7.51065 14.7552 5.98131 13.7773 5.42612 12.2334ZM8.14117 15.6221C8.36673 15.6558 8.59628 15.6736 8.82854 15.6736C8.96359 15.6736 9.09981 15.6678 9.23631 15.6558L9.28276 15.6517L7.28781 19.9318C7.0659 19.8636 6.84873 19.7908 6.6377 19.7125C6.52159 19.6694 6.40797 19.6249 6.29678 19.5791L8.14117 15.6221ZM22.2163 19.1464C21.483 20.2776 20.1197 21.2372 18.274 21.9217C16.4546 22.5963 14.3011 22.9529 12.0462 22.9529C9.7914 22.9529 7.63787 22.5962 5.81851 21.9217C3.97272 21.2372 2.6095 20.2776 1.87623 19.1465C1.67987 18.8436 1.7665 18.4375 2.06926 18.2413C2.17904 18.1702 2.30233 18.1362 2.42429 18.1362C2.63889 18.1362 2.8494 18.2414 2.97456 18.4343C3.54503 19.3144 4.71672 20.117 6.27367 20.6943C7.94884 21.3155 9.94501 21.6439 12.0462 21.6439C14.1475 21.6439 16.1436 21.3155 17.8188 20.6943C19.3757 20.117 20.5474 19.3144 21.1179 18.4343C21.3142 18.1315 21.7203 18.045 22.0232 18.2412C22.326 18.4375 22.4125 18.8436 22.2163 19.1464Z" fill="#828282"/>
</g>
<defs>
<clipPath id="clip0">
<rect width="24" height="24" fill="white"/>
</clipPath>
</defs>
</svg>
