<svg width="41" height="41" viewBox="0 0 41 41" fill="none" xmlns="http://www.w3.org/2000/svg">
<path d="M20.5688 0.830078C9.74035 0.830078 0.960938 9.78508 0.960938 20.8301C0.960938 31.8751 9.74035 40.8301 20.5688 40.8301C31.3972 40.8301 40.1766 31.8751 40.1766 20.8301C40.1766 9.78508 31.3972 0.830078 20.5688 0.830078ZM25.3457 15.8301H26.6962C27.3727 15.8301 27.9217 16.3901 27.9217 17.0801C27.9217 17.7701 27.3727 18.3301 26.6962 18.3301H25.3457C24.7771 21.1801 22.3016 23.3301 19.3433 23.3301H17.3997L25.1104 31.1951C25.5884 31.6826 25.5884 32.4751 25.1104 32.9626C24.8727 33.2076 24.559 33.3301 24.2453 33.3301C23.9315 33.3301 23.6178 33.2076 23.3776 32.9651L13.5737 22.9651C13.2232 22.6051 13.1178 22.0701 13.309 21.6026C13.4977 21.1351 13.9462 20.8301 14.4413 20.8301H19.3433C20.9389 20.8301 22.2869 19.7826 22.7943 18.3301H14.4413C13.7649 18.3301 13.2158 17.7701 13.2158 17.0801C13.2158 16.3901 13.7649 15.8301 14.4413 15.8301H22.7943C22.2869 14.3776 20.9389 13.3301 19.3433 13.3301H14.4413C13.7649 13.3301 13.2158 12.7701 13.2158 12.0801C13.2158 11.3901 13.7649 10.8301 14.4413 10.8301H19.3433H26.6962C27.3727 10.8301 27.9217 11.3901 27.9217 12.0801C27.9217 12.7701 27.3727 13.3301 26.6962 13.3301H24.2134C24.7551 14.0601 25.1619 14.9001 25.3457 15.8301Z" fill="#2A468D"/>
</svg>
