<svg width="31" height="31" viewBox="0 0 31 31" fill="none" xmlns="http://www.w3.org/2000/svg">
<path d="M22.5957 10.9941C24.6668 10.9941 26.3457 9.31521 26.3457 7.24414C26.3457 5.17307 24.6668 3.49414 22.5957 3.49414C20.5246 3.49414 18.8457 5.17307 18.8457 7.24414C18.8457 9.31521 20.5246 10.9941 22.5957 10.9941Z" stroke="#2A468D" stroke-width="2" stroke-linecap="round" stroke-linejoin="round"/>
<path d="M7.5957 19.7441C9.66677 19.7441 11.3457 18.0652 11.3457 15.9941C11.3457 13.9231 9.66677 12.2441 7.5957 12.2441C5.52464 12.2441 3.8457 13.9231 3.8457 15.9941C3.8457 18.0652 5.52464 19.7441 7.5957 19.7441Z" stroke="#2A468D" stroke-width="2" stroke-linecap="round" stroke-linejoin="round"/>
<path d="M22.5957 28.4941C24.6668 28.4941 26.3457 26.8152 26.3457 24.7441C26.3457 22.6731 24.6668 20.9941 22.5957 20.9941C20.5246 20.9941 18.8457 22.6731 18.8457 24.7441C18.8457 26.8152 20.5246 28.4941 22.5957 28.4941Z" stroke="#2A468D" stroke-width="2" stroke-linecap="round" stroke-linejoin="round"/>
<path d="M10.834 17.8809L19.3715 22.8559" stroke="#2A468D" stroke-width="2" stroke-linecap="round" stroke-linejoin="round"/>
<path d="M19.359 9.13086L10.834 14.1059" stroke="#2A468D" stroke-width="2" stroke-linecap="round" stroke-linejoin="round"/>
</svg>
