<svg width="25" height="25" viewBox="0 0 25 25" fill="none" xmlns="http://www.w3.org/2000/svg">
<path d="M3.45703 6.99414H5.45703H21.457" stroke="#6B6B6B" stroke-width="2" stroke-linecap="round" stroke-linejoin="round"/>
<path d="M8.45703 6.99414V4.99414C8.45703 4.46371 8.66775 3.955 9.04282 3.57993C9.41789 3.20485 9.9266 2.99414 10.457 2.99414H14.457C14.9875 2.99414 15.4962 3.20485 15.8712 3.57993C16.2463 3.955 16.457 4.46371 16.457 4.99414V6.99414M19.457 6.99414V20.9941C19.457 21.5246 19.2463 22.0333 18.8712 22.4084C18.4962 22.7834 17.9875 22.9941 17.457 22.9941H7.45703C6.9266 22.9941 6.41789 22.7834 6.04282 22.4084C5.66774 22.0333 5.45703 21.5246 5.45703 20.9941V6.99414H19.457Z" stroke="#6B6B6B" stroke-width="2" stroke-linecap="round" stroke-linejoin="round"/>
</svg>
