<svg width="20" height="17" viewBox="0 0 20 17" fill="none" xmlns="http://www.w3.org/2000/svg">
<path d="M11.4108 0.7233L11.4106 0.722885C11.0769 0.927064 10.9918 1.34326 11.1343 1.719C11.3371 2.05189 11.7385 2.13302 12.0996 1.98978C13.3376 1.27547 15.007 1.72657 15.7129 2.98664C16.4181 4.24549 15.9808 5.95181 14.7409 6.67454L14.7394 6.67545L14.7393 6.67544C13.9413 7.12774 12.971 7.12419 12.0974 6.67856L12.0871 6.67327L12.0873 6.67289C11.7545 6.46922 11.3435 6.59522 11.1283 6.96095C10.9258 7.30531 11.0535 7.7275 11.4092 7.94616C11.9649 8.26959 12.6859 8.43445 13.3293 8.43491C15.581 8.35153 17.3484 6.54805 17.3485 4.25005L11.4108 0.7233ZM11.4108 0.7233L11.4206 0.716181M11.4108 0.7233L11.4206 0.716181M11.4206 0.716181C11.9713 0.314998 12.6874 0.15 13.3321 0.15C15.5797 0.15 17.3484 1.95012 17.3485 4.24998L11.4206 0.716181ZM12.5823 16.8499H12.5458L12.5457 16.85H0.83321C0.618222 16.85 0.450321 16.7776 0.336237 16.6613C0.221892 16.5446 0.15 16.3719 0.15 16.1501C0.15 12.49 3.08537 9.50005 6.66618 9.50005H6.74946C10.334 9.50005 13.2656 12.4088 13.2656 15.9799V16.15C13.2656 16.5703 12.9232 16.8499 12.5823 16.8499ZM1.68447 15.28L1.66146 15.4501H1.83312H11.6658H11.8433L11.8137 15.2751C11.3853 12.7405 9.24179 10.9001 6.74946 10.9001C4.17638 10.9001 2.02832 12.7388 1.68447 15.28ZM19.8483 16.1466L19.8618 16.1498H19.8483C19.8483 16.3716 19.7764 16.5444 19.6621 16.661C19.548 16.7774 19.3801 16.8497 19.1652 16.8496H19.1651H14.9987C14.7837 16.8496 14.6158 16.7773 14.5017 16.6609C14.3874 16.5443 14.3155 16.3715 14.3155 16.1497C14.3155 15.9279 14.3874 15.7551 14.5017 15.6385C14.6158 15.5221 14.7837 15.4498 14.9987 15.4498H18.3317H18.5042L18.4802 15.2789C18.1357 12.8206 15.9021 10.9849 13.4154 10.9849H12.8321H12.817L12.8022 10.988C12.4927 11.0511 12.1374 10.7979 12.0635 10.3458L12.0636 10.3458L12.0627 10.3411C11.9992 10.0173 12.2539 9.657 12.6906 9.5828L12.7024 9.5808L12.7137 9.57695C12.9366 9.5012 13.162 9.49997 13.4154 9.49997H13.5802C17.0787 9.58418 19.9297 12.5739 19.8483 16.1466ZM6.66625 8.35026C4.41881 8.35026 2.64984 6.55031 2.64984 4.2502C2.64984 1.9503 4.41861 0.150146 6.66625 0.150146C8.91369 0.150146 10.6827 1.95009 10.6827 4.2502C10.6825 6.55025 8.91375 8.35026 6.66625 8.35026ZM6.66625 1.55024C5.16402 1.55024 4.01648 2.72531 4.01648 4.2502C4.01648 5.77524 5.16403 6.95016 6.66625 6.95016C8.16848 6.95016 9.31603 5.77524 9.31603 4.2502C9.31603 2.7253 8.16834 1.55024 6.66625 1.55024Z" fill="#20B169" stroke="white" stroke-width="0.3"/>
</svg>
